<?xml version="1.0" encoding="UTF-8"?>
<!DOCTYPE svg PUBLIC "-//W3C//DTD SVG 1.1//EN" "http://www.w3.org/Graphics/SVG/1.1/DTD/svg11.dtd">
<!-- Creator: CorelDRAW 2018 (64 Bit) -->
<svg xmlns="http://www.w3.org/2000/svg" xml:space="preserve" width="297mm" height="210mm" version="1.1" style="shape-rendering:geometricPrecision; text-rendering:geometricPrecision; image-rendering:optimizeQuality; fill-rule:evenodd; clip-rule:evenodd"
viewBox="0 0 29700 21000"
 xmlns:xlink="http://www.w3.org/1999/xlink">
 <defs>
  <style type="text/css">
   <![CDATA[
    .fil0 {fill:white}
   ]]>
  </style>
 </defs>
 <g id="Camada_x0020_1">
  <metadata id="CorelCorpID_0Corel-Layer"/>
  <path class="fil0" d="M9641.8 6710.78l-347.13 0c0,1600.98 -8.47,3175.45 -8.47,4775.21 0,517.69 8.47,1008.31 8.47,1524 0,134.98 8.47,243.6 8.46,372.53 0,59.46 -3.19,127.99 -0.04,186.31 2.04,37.67 8.32,40.62 8.85,84.29 1.72,142.2 -13.55,185.44 39.01,195.07l94.31 0c54.72,-3.05 131.49,-8.03 239.16,-8.18l279.03 -17.31c63.45,0.62 109.24,-6.22 178.15,-8.11l181.11 -13.63c33.46,-5.05 56.24,-1.89 89.57,-3.55 37.89,-1.89 40.35,-8.43 84.43,-8.71 51.26,-0.33 132.22,-3.52 184.18,-10.56 89.79,-12.16 270.07,-14.86 356.67,-24.33 111.53,-12.2 250.83,-15.84 359.35,-30.11 233.18,-30.65 445.56,-44.51 687.01,-83.46l660.27 -110.2c484.05,-87 791.89,-168.79 1247.71,-284.76 241.93,-61.55 622.9,-178.45 879.11,-263.89 52.19,-17.4 95.21,-30.51 144.65,-50.08 49.91,-19.76 95.49,-30.91 145.2,-49.54 465.6,-174.55 771.71,-294.76 1223.31,-495.42 47.85,-21.27 88.82,-36.66 135.49,-59.25 251.25,-121.59 534.93,-256.35 776.02,-383.91l0 -9211.75c-35.76,9.54 -31.56,33.77 -65.28,112.51 -111.64,260.67 -316.53,561.84 -492.32,777.69l-346.22 381.92c-30.92,30.92 -57.1,59.69 -88.79,89l-97.44 88.83c-32.2,32.59 -59.33,52.07 -93.02,84.79 -20.78,20.18 -30.22,22.94 -50.93,42.19l-95.2 82.61c-202.01,156.47 -347.01,279.04 -572.35,435.18 -74.72,51.78 -142.79,95 -218.51,145.55 -75.01,50.08 -146.77,94.14 -223.61,140.46 -1218.38,734.43 -2568.97,1239.78 -3977.32,1475.23 -263.87,44.11 -410.1,51.62 -643.47,84.66 -110.06,15.58 -232.95,13.8 -336.13,27.94 -55.68,7.63 -113.91,-1.38 -170.6,7.2 -57.8,8.75 -122.75,3.58 -182.69,3.58z"/>
 </g>
</svg>
