<?xml version="1.0" encoding="UTF-8"?>
<!DOCTYPE svg PUBLIC "-//W3C//DTD SVG 1.1//EN" "http://www.w3.org/Graphics/SVG/1.1/DTD/svg11.dtd">
<!-- Creator: CorelDRAW 2018 (64 Bit) -->
<?xml-stylesheet href="vetor1.css" type="text/css"?>
<svg xmlns="http://www.w3.org/2000/svg" xml:space="preserve" width="297mm" height="210mm" version="1.1" style="shape-rendering:geometricPrecision; text-rendering:geometricPrecision; image-rendering:optimizeQuality; fill-rule:evenodd; clip-rule:evenodd"
viewBox="0 0 29700 21000"
 xmlns:xlink="http://www.w3.org/1999/xlink">
 <g id="Camada_x0020_1">
  <metadata id="CorelCorpID_0Corel-Layer"/>
  <path class="fil0" d="M4795.19 5813.77c8.69,817.22 -35.49,7005.09 30.48,7154.71 83.96,27.87 1925.02,-105.41 2071.97,-120.27 936.24,-94.68 1867.53,-271.57 2761.07,-524.62 556.36,-157.55 1114.6,-347.4 1630.04,-556.98 264.22,-107.43 509,-219.54 763.1,-330.37l735.71 -363.7 1.86 -9214.55c-34.98,36.15 -110.71,-1.59 -143.35,48.44 -130.91,200.68 -272.15,364.37 -409.71,542.28 -96.1,124.29 -198.76,229.59 -274.68,325.26 -24.76,31.19 -54.37,57.87 -79.94,87.47 -278.07,321.89 -730.28,723.99 -1068.6,994.72 -1730.02,1140.93 -5584.91,2001.54 -6017.95,1957.61z"/>
 </g>
</svg>
